<svg width="24" height="21" viewBox="0 0 24 21" fill="none" xmlns="http://www.w3.org/2000/svg">
<path id="Home Solid Icon" d="M3.44951 6.96442L3.34843 6.23159L2.70613 6.59862L1.62392 7.21703C1.50404 7.28553 1.35133 7.24388 1.28282 7.124C1.21432 7.00412 1.25597 6.85141 1.37585 6.7829L10.8836 1.34992C11.5753 0.954649 12.4245 0.954649 13.1162 1.34992L22.6239 6.7829C22.7438 6.85141 22.7854 7.00412 22.7169 7.124C22.6484 7.24388 22.4957 7.28553 22.3759 7.21703L21.2936 6.59862L20.6513 6.23159L20.5503 6.96442L19.1048 17.444C18.883 19.0521 17.5086 20.25 15.8853 20.25H8.11449C6.49116 20.25 5.11678 19.0521 4.89498 17.444L3.44951 6.96442ZM12 14.4999C14.0711 14.4999 15.75 12.821 15.75 10.7499C15.75 8.67887 14.0711 6.99994 12 6.99994C9.92893 6.99994 8.25 8.67887 8.25 10.7499C8.25 12.821 9.92893 14.4999 12 14.4999Z" fill="#4C9EEB" stroke="black"/>
</svg>
